<svg xmlns="http://www.w3.org/2000/svg" xmlns:xlink="http://www.w3.org/1999/xlink" contentStyleType="text/css" data-diagram-type="DESCRIPTION" height="1128px" preserveAspectRatio="none" style="width:956px;height:1128px;background:#FFFFFF;" version="1.1" viewBox="0 0 956 1128" width="956px" zoomAndPan="magnify"><title>AWS Infra &amp; Kubernetes Flow</title><defs/><g><text fill="#000000" font-family="Monospace" font-size="14" font-weight="bold" lengthAdjust="spacing" textLength="233.8164" x="354.2668" y="22.9951">AWS&#160;Infra&#160;&amp;&#160;Kubernetes&#160;Flow</text><!--cluster AWS VPC 10.0.0.0/16--><g class="cluster" data-entity="AWS VPC 10.0.0.0/16" data-source-line="5" data-uid="ent0002" id="cluster_AWS VPC 10.0.0.0/16"><path d="M206.85,127.2969 L374.5854,127.2969 A3.75,3.75 0 0 1 377.0854,129.7969 L384.0854,149.5937 L946.85,149.5937 A2.5,2.5 0 0 1 949.35,152.0937 L949.35,1001.8669 A2.5,2.5 0 0 1 946.85,1004.3669 L206.85,1004.3669 A2.5,2.5 0 0 1 204.35,1001.8669 L204.35,129.7969 A2.5,2.5 0 0 1 206.85,127.2969" fill="none" style="stroke:#000000;stroke-width:1.5;"/><line style="stroke:#000000;stroke-width:1.5;" x1="204.35" x2="384.0854" y1="149.5937" y2="149.5937"/><text fill="#000000" font-family="Monospace" font-size="14" font-weight="bold" lengthAdjust="spacing" textLength="166.7354" x="208.35" y="142.292">AWS&#160;VPC&#160;10.0.0.0/16</text></g><!--cluster Public Subnets--><g class="cluster" data-entity="Public Subnets" data-source-line="7" data-uid="ent0004" id="cluster_Public Subnets"><rect fill="none" height="97.3" rx="2.5" ry="2.5" style="stroke:#181818;stroke-width:1;" width="423" x="502.35" y="255.5869"/><path d="M629.9281,255.5869 L629.9281,264.8837 L619.9281,274.8837 L502.35,274.8837" fill="none" style="stroke:#181818;stroke-width:1;"/><text fill="#000000" font-family="Monospace" font-size="14" font-weight="bold" lengthAdjust="spacing" textLength="117.5781" x="505.35" y="269.582">Public&#160;Subnets</text></g><!--cluster Private Subnets--><g class="cluster" data-entity="Private Subnets" data-source-line="11" data-uid="ent0007" id="cluster_Private Subnets"><rect fill="none" height="594.48" rx="2.5" ry="2.5" style="stroke:#181818;stroke-width:1;" width="697" x="228.35" y="385.8869"/><path d="M364.5072,385.8869 L364.5072,395.1837 L354.5072,405.1837 L228.35,405.1837" fill="none" style="stroke:#181818;stroke-width:1;"/><text fill="#000000" font-family="Monospace" font-size="14" font-weight="bold" lengthAdjust="spacing" textLength="126.1572" x="231.35" y="399.882">Private&#160;Subnets</text></g><!--cluster Amazon EKS Cluster--><g class="cluster" data-entity="Amazon EKS Cluster" data-source-line="12" data-uid="ent0008" id="cluster_Amazon EKS Cluster"><polygon fill="none" points="252.35,438.8869,262.35,428.8869,901.35,428.8869,901.35,946.3669,891.35,956.3669,252.35,956.3669,252.35,438.8869" style="stroke:#181818;stroke-width:1;"/><line style="stroke:#181818;stroke-width:1;" x1="891.35" x2="901.35" y1="438.8869" y2="428.8869"/><line style="stroke:#181818;stroke-width:1;" x1="252.35" x2="891.35" y1="438.8869" y2="438.8869"/><line style="stroke:#181818;stroke-width:1;" x1="891.35" x2="891.35" y1="438.8869" y2="956.3669"/><text fill="#000000" font-family="Monospace" font-size="14" font-weight="bold" lengthAdjust="spacing" textLength="159.3115" x="493.1942" y="454.882">Amazon&#160;EKS&#160;Cluster</text></g><!--cluster Kubernetes Workloads--><g class="cluster" data-entity="Kubernetes Workloads" data-source-line="15" data-uid="ent0011" id="cluster_Kubernetes Workloads"><rect fill="none" height="455.48" rx="2.5" ry="2.5" style="stroke:#181818;stroke-width:1;" width="357" x="520.35" y="476.8869"/><rect fill="none" height="10" style="stroke:#181818;stroke-width:1;" width="15" x="857.35" y="481.8869"/><rect fill="none" height="2" style="stroke:#181818;stroke-width:1;" width="4" x="855.35" y="483.8869"/><rect fill="none" height="2" style="stroke:#181818;stroke-width:1;" width="4" x="855.35" y="487.8869"/><text fill="#000000" font-family="Monospace" font-size="14" font-weight="bold" lengthAdjust="spacing" textLength="179.5869" x="609.0565" y="502.882">Kubernetes&#160;Workloads</text></g><!--entity IGW--><g class="entity" data-entity="IGW" data-source-line="6" data-uid="ent0003" id="entity_IGW"><rect fill="#F1F1F1" height="46.2969" rx="2.5" ry="2.5" style="stroke:#181818;stroke-width:0.5;" width="162.1309" x="548.28" y="162.2969"/><rect fill="#F1F1F1" height="10" style="stroke:#181818;stroke-width:0.5;" width="15" x="690.4109" y="167.2969"/><rect fill="#F1F1F1" height="2" style="stroke:#181818;stroke-width:0.5;" width="4" x="688.4109" y="169.2969"/><rect fill="#F1F1F1" height="2" style="stroke:#181818;stroke-width:0.5;" width="4" x="688.4109" y="173.2969"/><text fill="#000000" font-family="Monospace" font-size="14" lengthAdjust="spacing" textLength="122.1309" x="563.28" y="195.292">Internet&#160;Gateway</text></g><!--entity ALB--><g class="entity" data-entity="ALB" data-source-line="8" data-uid="ent0005" id="entity_ALB"><rect fill="#F1F1F1" height="46.2969" rx="2.5" ry="2.5" style="stroke:#181818;stroke-width:0.5;" width="221.9863" x="518.35" y="290.5869"/><rect fill="#F1F1F1" height="10" style="stroke:#181818;stroke-width:0.5;" width="15" x="720.3363" y="295.5869"/><rect fill="#F1F1F1" height="2" style="stroke:#181818;stroke-width:0.5;" width="4" x="718.3363" y="297.5869"/><rect fill="#F1F1F1" height="2" style="stroke:#181818;stroke-width:0.5;" width="4" x="718.3363" y="301.5869"/><text fill="#000000" font-family="Monospace" font-size="14" lengthAdjust="spacing" textLength="181.9863" x="533.35" y="323.582">ALB/NLB&#160;(Ingress&#160;Service)</text></g><!--entity NAT--><g class="entity" data-entity="NAT" data-source-line="9" data-uid="ent0006" id="entity_NAT"><rect fill="#F1F1F1" height="46.2969" rx="2.5" ry="2.5" style="stroke:#181818;stroke-width:0.5;" width="134.8965" x="774.9" y="290.5869"/><rect fill="#F1F1F1" height="10" style="stroke:#181818;stroke-width:0.5;" width="15" x="889.7965" y="295.5869"/><rect fill="#F1F1F1" height="2" style="stroke:#181818;stroke-width:0.5;" width="4" x="887.7965" y="297.5869"/><rect fill="#F1F1F1" height="2" style="stroke:#181818;stroke-width:0.5;" width="4" x="887.7965" y="301.5869"/><text fill="#000000" font-family="Monospace" font-size="14" lengthAdjust="spacing" textLength="94.8965" x="789.9" y="323.582">NAT&#160;Gateway</text></g><!--entity CP--><g class="entity" data-entity="CP" data-source-line="13" data-uid="ent0009" id="entity_CP"><rect fill="#F1F1F1" height="62.5938" rx="2.5" ry="2.5" style="stroke:#181818;stroke-width:0.5;" width="173.7998" x="320.45" y="726.4769"/><rect fill="#F1F1F1" height="10" style="stroke:#181818;stroke-width:0.5;" width="15" x="474.2498" y="731.4769"/><rect fill="#F1F1F1" height="2" style="stroke:#181818;stroke-width:0.5;" width="4" x="472.2498" y="733.4769"/><rect fill="#F1F1F1" height="2" style="stroke:#181818;stroke-width:0.5;" width="4" x="472.2498" y="737.4769"/><text fill="#000000" font-family="Monospace" font-size="14" lengthAdjust="spacing" textLength="125.125" x="335.45" y="759.472">EKS&#160;Control&#160;Plane</text><text fill="#000000" font-family="Monospace" font-size="14" lengthAdjust="spacing" textLength="133.7998" x="335.45" y="775.7689">(Managed&#160;by&#160;AWS)</text></g><!--entity N1--><g class="entity" data-entity="N1" data-source-line="14" data-uid="ent0010" id="entity_N1"><rect fill="#F1F1F1" height="46.2969" rx="2.5" ry="2.5" style="stroke:#181818;stroke-width:0.5;" width="235.7676" x="268.46" y="870.0769"/><rect fill="#F1F1F1" height="10" style="stroke:#181818;stroke-width:0.5;" width="15" x="484.2276" y="875.0769"/><rect fill="#F1F1F1" height="2" style="stroke:#181818;stroke-width:0.5;" width="4" x="482.2276" y="877.0769"/><rect fill="#F1F1F1" height="2" style="stroke:#181818;stroke-width:0.5;" width="4" x="482.2276" y="881.0769"/><text fill="#000000" font-family="Monospace" font-size="14" lengthAdjust="spacing" textLength="195.7676" x="283.46" y="903.072">Managed&#160;Node&#160;Group&#160;(EC2)</text></g><!--entity Ingress--><g class="entity" data-entity="Ingress" data-source-line="16" data-uid="ent0012" id="entity_Ingress"><rect fill="#F1F1F1" height="46.2969" rx="2.5" ry="2.5" style="stroke:#181818;stroke-width:0.5;" width="90.8457" x="611.92" y="511.8869"/><rect fill="#F1F1F1" height="10" style="stroke:#181818;stroke-width:0.5;" width="15" x="682.7657" y="516.8869"/><rect fill="#F1F1F1" height="2" style="stroke:#181818;stroke-width:0.5;" width="4" x="680.7657" y="518.8869"/><rect fill="#F1F1F1" height="2" style="stroke:#181818;stroke-width:0.5;" width="4" x="680.7657" y="522.8869"/><text fill="#000000" font-family="Monospace" font-size="14" lengthAdjust="spacing" textLength="50.8457" x="626.92" y="544.882">Ingress</text></g><!--entity Svc--><g class="entity" data-entity="Svc" data-source-line="17" data-uid="ent0013" id="entity_Svc"><rect fill="#F1F1F1" height="46.2969" rx="2.5" ry="2.5" style="stroke:#181818;stroke-width:0.5;" width="169.377" x="682.66" y="619.1869"/><rect fill="#F1F1F1" height="10" style="stroke:#181818;stroke-width:0.5;" width="15" x="832.037" y="624.1869"/><rect fill="#F1F1F1" height="2" style="stroke:#181818;stroke-width:0.5;" width="4" x="830.037" y="626.1869"/><rect fill="#F1F1F1" height="2" style="stroke:#181818;stroke-width:0.5;" width="4" x="830.037" y="630.1869"/><text fill="#000000" font-family="Monospace" font-size="14" lengthAdjust="spacing" textLength="129.377" x="697.66" y="652.182">Service&#160;(ClusterIP)</text></g><!--entity Deploy--><g class="entity" data-entity="Deploy" data-source-line="18" data-uid="ent0014" id="entity_Deploy"><rect fill="#F1F1F1" height="46.2969" rx="2.5" ry="2.5" style="stroke:#181818;stroke-width:0.5;" width="125.6338" x="735.53" y="734.6269"/><rect fill="#F1F1F1" height="10" style="stroke:#181818;stroke-width:0.5;" width="15" x="841.1638" y="739.6269"/><rect fill="#F1F1F1" height="2" style="stroke:#181818;stroke-width:0.5;" width="4" x="839.1638" y="741.6269"/><rect fill="#F1F1F1" height="2" style="stroke:#181818;stroke-width:0.5;" width="4" x="839.1638" y="745.6269"/><text fill="#000000" font-family="Monospace" font-size="14" lengthAdjust="spacing" textLength="85.6338" x="750.53" y="767.622">Deployment</text></g><!--entity Pods--><g class="entity" data-entity="Pods" data-source-line="19" data-uid="ent0015" id="entity_Pods"><rect fill="#F1F1F1" height="46.2969" rx="2.5" ry="2.5" style="stroke:#181818;stroke-width:0.5;" width="73.1885" x="581.75" y="870.0769"/><rect fill="#F1F1F1" height="10" style="stroke:#181818;stroke-width:0.5;" width="15" x="634.9385" y="875.0769"/><rect fill="#F1F1F1" height="2" style="stroke:#181818;stroke-width:0.5;" width="4" x="632.9385" y="877.0769"/><rect fill="#F1F1F1" height="2" style="stroke:#181818;stroke-width:0.5;" width="4" x="632.9385" y="881.0769"/><text fill="#000000" font-family="Monospace" font-size="14" lengthAdjust="spacing" textLength="33.1885" x="596.75" y="903.072">Pods</text></g><!--entity Cfg--><g class="entity" data-entity="Cfg" data-source-line="20" data-uid="ent0016" id="entity_Cfg"><rect fill="#F1F1F1" height="46.2969" rx="2.5" ry="2.5" style="stroke:#181818;stroke-width:0.5;" width="164.2363" x="536.23" y="734.6269"/><rect fill="#F1F1F1" height="10" style="stroke:#181818;stroke-width:0.5;" width="15" x="680.4663" y="739.6269"/><rect fill="#F1F1F1" height="2" style="stroke:#181818;stroke-width:0.5;" width="4" x="678.4663" y="741.6269"/><rect fill="#F1F1F1" height="2" style="stroke:#181818;stroke-width:0.5;" width="4" x="678.4663" y="745.6269"/><text fill="#000000" font-family="Monospace" font-size="14" lengthAdjust="spacing" textLength="124.2363" x="551.23" y="767.622">ConfigMap/Secret</text></g><!--entity ECR--><g class="entity" data-entity="ECR" data-source-line="26" data-uid="ent0017" id="entity_ECR"><path d="M192.16,1067.3669 L233.16,1067.3669 A3.75,3.75 0 0 1 235.66,1069.8669 L242.66,1088.3669 L306.5399,1088.3669 A2.5,2.5 0 0 1 309.0399,1090.8669 L309.0399,1119.1638 A2.5,2.5 0 0 1 306.5399,1121.6638 L192.16,1121.6638 A2.5,2.5 0 0 1 189.66,1119.1638 L189.66,1069.8669 A2.5,2.5 0 0 1 192.16,1067.3669" fill="#F1F1F1" style="stroke:#181818;stroke-width:0.5;"/><line style="stroke:#181818;stroke-width:0.5;" x1="189.66" x2="242.66" y1="1088.3669" y2="1088.3669"/><text fill="#000000" font-family="Monospace" font-size="14" lengthAdjust="spacing" textLength="89.3799" x="199.66" y="1108.362">Amazon&#160;ECR</text></g><!--entity CW--><g class="entity" data-entity="CW" data-source-line="27" data-uid="ent0018" id="entity_CW"><path d="M500.51,1081.3669 L736.1916,1081.3669 C741.1916,1081.3669 741.1916,1094.5153 741.1916,1094.5153 C741.1916,1094.5153 741.1916,1107.6638 736.1916,1107.6638 L500.51,1107.6638 C495.51,1107.6638 495.51,1094.5153 495.51,1094.5153 C495.51,1094.5153 495.51,1081.3669 500.51,1081.3669" fill="#F1F1F1" style="stroke:#181818;stroke-width:0.5;"/><path d="M736.1916,1081.3669 C731.1916,1081.3669 731.1916,1094.5153 731.1916,1094.5153 C731.1916,1107.6638 736.1916,1107.6638 736.1916,1107.6638" fill="none" style="stroke:#181818;stroke-width:0.5;"/><text fill="#000000" font-family="Monospace" font-size="14" lengthAdjust="spacing" textLength="225.6816" x="500.51" y="1099.362">CloudWatch&#160;/&#160;Container&#160;Insights</text></g><!--entity CI--><g class="entity" data-entity="CI" data-source-line="28" data-uid="ent0019" id="entity_CI"><path d="M8.5,866.0769 L49.5,866.0769 A3.75,3.75 0 0 1 52,868.5769 L59,887.0769 L186.1943,887.0769 A2.5,2.5 0 0 1 188.6943,889.5769 L188.6943,917.8737 A2.5,2.5 0 0 1 186.1943,920.3737 L8.5,920.3737 A2.5,2.5 0 0 1 6,917.8737 L6,868.5769 A2.5,2.5 0 0 1 8.5,866.0769" fill="#F1F1F1" style="stroke:#181818;stroke-width:0.5;"/><line style="stroke:#181818;stroke-width:0.5;" x1="6" x2="59" y1="887.0769" y2="887.0769"/><text fill="#000000" font-family="Monospace" font-size="14" lengthAdjust="spacing" textLength="152.6943" x="16" y="907.072">CI/CD:&#160;GitHub&#160;Actions</text></g><!--entity Internet--><g class="entity" data-entity="Internet" data-source-line="29" data-uid="ent0020" id="entity_Internet"><ellipse cx="629.35" cy="51.2969" fill="#F1F1F1" rx="8" ry="8" style="stroke:#181818;stroke-width:0.5;"/><text fill="#000000" font-family="Monospace" font-size="14" lengthAdjust="spacing" textLength="101.3633" x="578.6684" y="81.292">User&#160;/&#160;Internet</text></g><!--link Internet to IGW--><g class="link" data-entity-1="Internet" data-entity-2="IGW" data-source-line="31" data-uid="lnk21" id="link_Internet_IGW"><path d="M629.35,60.1669 C629.35,79.8369 629.35,125.7169 629.35,155.8569" fill="none" id="Internet-to-IGW" style="stroke:#181818;stroke-width:1;"/><polygon fill="#181818" points="629.35,161.8569,633.35,152.8569,629.35,156.8569,625.35,152.8569,629.35,161.8569" style="stroke:#181818;stroke-width:1;"/></g><!--link IGW to ALB--><g class="link" data-entity-1="IGW" data-entity-2="ALB" data-source-line="32" data-uid="lnk22" id="link_IGW_ALB"><path d="M629.35,209.0169 C629.35,232.0069 629.35,261.4369 629.35,284.3569" fill="none" id="IGW-to-ALB" style="stroke:#181818;stroke-width:1;"/><polygon fill="#181818" points="629.35,290.3569,633.35,281.3569,629.35,285.3569,625.35,281.3569,629.35,290.3569" style="stroke:#181818;stroke-width:1;"/></g><!--link ALB to Ingress--><g class="link" data-entity-1="ALB" data-entity-2="Ingress" data-source-line="33" data-uid="lnk23" id="link_ALB_Ingress"><path d="M632.24,337.3769 C637.62,379.5069 648.3398,463.5252 653.7098,505.5652" fill="none" id="ALB-to-Ingress" style="stroke:#181818;stroke-width:1;"/><polygon fill="#181818" points="654.47,511.5169,657.2974,502.0826,653.8365,506.5572,649.3619,503.0962,654.47,511.5169" style="stroke:#181818;stroke-width:1;"/></g><!--link Ingress to Svc--><g class="link" data-entity-1="Ingress" data-entity-2="Svc" data-source-line="34" data-uid="lnk24" id="link_Ingress_Svc"><path d="M680.94,558.6269 C699.5,576.3869 720.9049,596.8787 739.4549,614.6287" fill="none" id="Ingress-to-Svc" style="stroke:#181818;stroke-width:1;"/><polygon fill="#181818" points="743.79,618.7769,740.0528,609.6646,740.1774,615.3201,734.5219,615.4447,743.79,618.7769" style="stroke:#181818;stroke-width:1;"/></g><!--link Svc to Deploy--><g class="link" data-entity-1="Svc" data-entity-2="Deploy" data-source-line="35" data-uid="lnk25" id="link_Svc_Deploy"><path d="M773.47,665.7469 C778.91,685.6369 785.2156,708.7498 790.6556,728.6198" fill="none" id="Svc-to-Deploy" style="stroke:#181818;stroke-width:1;"/><polygon fill="#181818" points="792.24,734.4069,793.7215,724.6701,790.9197,729.5843,786.0054,726.7826,792.24,734.4069" style="stroke:#181818;stroke-width:1;"/></g><!--link Deploy to Pods--><g class="link" data-entity-1="Deploy" data-entity-2="Pods" data-source-line="36" data-uid="lnk26" id="link_Deploy_Pods"><path d="M767.81,781.4169 C734.61,806.0269 686.6898,841.5535 653.5498,866.1235" fill="none" id="Deploy-to-Pods" style="stroke:#181818;stroke-width:1;"/><polygon fill="#181818" points="648.73,869.6969,658.342,867.55,652.7465,866.719,653.5775,861.1235,648.73,869.6969" style="stroke:#181818;stroke-width:1;"/></g><!--link Cfg to Pods--><g class="link" data-entity-1="Cfg" data-entity-2="Pods" data-source-line="37" data-uid="lnk27" id="link_Cfg_Pods"><path d="M618.35,781.4169 C618.35,806.0969 618.35,839.3669 618.35,863.9169" fill="none" id="Cfg-to-Pods" style="stroke:#181818;stroke-width:1;stroke-dasharray:7.0,7.0;"/><polygon fill="#181818" points="618.35,869.9169,622.35,860.9169,618.35,864.9169,614.35,860.9169,618.35,869.9169" style="stroke:#181818;stroke-width:1;"/></g><!--link CP to N1--><g class="link" data-entity-1="CP" data-entity-2="N1" data-source-line="38" data-uid="lnk28" id="link_CP_N1"><path d="M402.53,789.3869 C398.68,813.8569 394.3027,841.6798 390.8327,863.7298" fill="none" id="CP-to-N1" style="stroke:#181818;stroke-width:1;stroke-dasharray:7.0,7.0;"/><polygon fill="#181818" points="389.9,869.6569,395.2505,861.3881,390.6773,864.7177,387.3477,860.1445,389.9,869.6569" style="stroke:#181818;stroke-width:1;"/><text fill="#000000" font-family="Monospace" font-size="13" lengthAdjust="spacing" textLength="59.8584" x="398.35" y="832.1438">manages</text></g><!--link CP to Pods--><g class="link" data-entity-1="CP" data-entity-2="Pods" data-source-line="39" data-uid="lnk29" id="link_CP_Pods"><path d="M456.12,789.4769 C490.12,810.8969 536.53,840.1769 577.35,866.0769 C579.2,867.2469 576.0359,865.239 577.9559,866.459" fill="none" id="CP-to-Pods" style="stroke:#181818;stroke-width:1;stroke-dasharray:7.0,7.0;"/><polygon fill="#181818" points="583.02,869.6769,577.569,861.474,578.7999,866.9953,573.2786,868.2262,583.02,869.6769" style="stroke:#181818;stroke-width:1;"/><text fill="#000000" font-family="Monospace" font-size="13" lengthAdjust="spacing" textLength="65.0317" x="526.35" y="832.1438">schedules</text></g><!--link NAT to Pods--><!--link Pods to ECR--><g class="link" data-entity-1="Pods" data-entity-2="ECR" data-source-line="41" data-uid="lnk31" id="link_Pods_ECR"><path d="M616.98,916.5069 C614.1,943.3069 605.14,987.7569 577.35,1012.3669 C564.75,1023.5269 556.73,1016.5369 540.35,1020.3669 C460.2,1039.1069 373.948,1082.071 315.208,1097.301" fill="none" id="Pods-to-ECR" style="stroke:#181818;stroke-width:1;stroke-dasharray:7.0,7.0;"/><polygon fill="#181818" points="309.4,1098.8069,319.1158,1100.42,314.24,1097.552,317.108,1092.6761,309.4,1098.8069" style="stroke:#181818;stroke-width:1;"/><text fill="#000000" font-family="Monospace" font-size="13" lengthAdjust="spacing" textLength="68.3389" x="541.35" y="1033.4338">pull&#160;image</text></g><!--link Pods to CW--><g class="link" data-entity-1="Pods" data-entity-2="CW" data-source-line="42" data-uid="lnk32" id="link_Pods_CW"><path d="M618.35,916.6969 C618.35,958.8369 618.35,1042.4369 618.35,1075.1969" fill="none" id="Pods-to-CW" style="stroke:#181818;stroke-width:1;stroke-dasharray:7.0,7.0;"/><polygon fill="#181818" points="618.35,1081.1969,622.35,1072.1969,618.35,1076.1969,614.35,1072.1969,618.35,1081.1969" style="stroke:#181818;stroke-width:1;"/><text fill="#000000" font-family="Monospace" font-size="13" lengthAdjust="spacing" textLength="79.606" x="619.35" y="1033.4338">logs/metrics</text></g><!--link CI to ECR--><g class="link" data-entity-1="CI" data-entity-2="ECR" data-source-line="43" data-uid="lnk33" id="link_CI_ECR"><path d="M117.53,920.6869 C146.6,958.8069 196.3213,1023.9961 225.4413,1062.1761" fill="none" id="CI-to-ECR" style="stroke:#181818;stroke-width:1;"/><polygon fill="#181818" points="229.08,1066.9469,226.8025,1057.365,226.0478,1062.9712,220.4415,1062.2165,229.08,1066.9469" style="stroke:#181818;stroke-width:1;"/><text fill="#000000" font-family="Monospace" font-size="13" lengthAdjust="spacing" textLength="81.8721" x="205.35" y="1033.4338">build&#160;&amp;&#160;push</text></g><!--SRC=[NLF1Zfim4Btp5ICELVQGqFJGmnugPTdT5Eq6eQOjX-qU33PWhR4fnedIAl- -Onj2MY73UDwRv-4nw3SkEzAJ5YYhY173ev93Ibe6EoMLxaZ90dtXw8PGTUIoXee8pOA13uB19jz38gkUm0TuCWNh9HkOXaUXZa5GAK5P3w4b_SnYM7zSkIjQVmxXRm3maiZ1bS2M3En8Jgz0D2JR737Kn4x2p1I2bx0t1TAqByF2pVDTb3xVmIAHTS-qXZth3xnaDqu1KKzBDz__aSOz0kSh-PuV4FzVNogAuAObVvI4XwSznC9eR7N2KTfbqR1U2SW4aUoNNEo893MZK9oiCRwNE9ig9ZIrujjUcGuM3_4dJqlN8wrKRQSaamE4LuRcgdyJYb0zT-3iSo_lNVFn38wEm6BiFSdyIVj3EPFkMIVKgSNZ7EQtCvmfwjLjCAVnlIjUxqWNxLdPCryRL_N8E0VJ_HoShyPWj3F-5be-FeFVXXaqEXRAq9mCPGEHCvLmYHM9rBnkx5Unylb5A4wY-FuMjdpuQWhOb0DNSYGbmU86mXyQQH5CqnLwV_mc22v3jrn-SSE6oyLsR73v_6ZdD5ysPvt3vUBHAVzm6MSHcW2hrRJ9N9okuHPQz_4lEOjZLfSDeqPWtaxgygNXb3BvEgavbgMZLyZkZ130MzIPaJW7H8IgTTIoeUSb7f6uVdnDORYW-7DsHZVl]--></g></svg>